<svg xmlns="http://www.w3.org/2000/svg" xmlns:xlink="http://www.w3.org/1999/xlink" preserveAspectRatio="xMidYMid" width="67" height="28" viewBox="0 0 67 28">
  <defs>
    <style>
      .cls-1 {
        fill: #ffd981;
        fill-rule: evenodd;
      }
    </style>
  </defs>
  <path d="M66.421,17.287 C66.038,18.367 65.496,19.289 64.794,20.051 C64.092,20.814 63.246,21.407 62.257,21.830 C61.268,22.254 60.178,22.466 58.987,22.466 C57.795,22.466 56.711,22.254 55.733,21.830 C54.754,21.407 53.914,20.814 53.212,20.051 C52.510,19.289 51.962,18.367 51.569,17.287 C51.175,16.207 50.979,15.010 50.979,13.697 C50.979,12.383 51.175,11.192 51.569,10.122 C51.962,9.053 52.515,8.136 53.228,7.374 C53.941,6.611 54.786,6.023 55.765,5.611 C56.743,5.197 57.817,4.991 58.987,4.991 C60.157,4.991 61.236,5.197 62.225,5.611 C63.214,6.023 64.060,6.611 64.762,7.374 C65.464,8.136 66.011,9.053 66.405,10.122 C66.798,11.192 66.995,12.383 66.995,13.697 C66.995,15.010 66.804,16.207 66.421,17.287 ZM61.970,9.773 C61.257,8.809 60.263,8.327 58.987,8.327 C57.711,8.327 56.716,8.809 56.004,9.773 C55.291,10.737 54.935,12.045 54.935,13.697 C54.935,15.370 55.291,16.694 56.004,17.668 C56.716,18.643 57.711,19.130 58.987,19.130 C60.263,19.130 61.257,18.643 61.970,17.668 C62.682,16.694 63.039,15.370 63.039,13.697 C63.039,12.045 62.682,10.737 61.970,9.773 ZM39.557,27.994 C38.536,27.994 37.542,27.910 36.574,27.740 C35.606,27.571 34.728,27.348 33.942,27.073 L34.644,23.801 C35.303,24.076 36.053,24.298 36.893,24.468 C37.733,24.637 38.642,24.722 39.621,24.722 C41.173,24.722 42.279,24.404 42.939,23.769 C43.598,23.133 43.928,22.191 43.928,20.941 L43.928,20.306 C43.545,20.496 43.040,20.687 42.412,20.878 C41.785,21.068 41.067,21.163 40.259,21.163 C39.195,21.163 38.222,20.994 37.340,20.655 C36.457,20.317 35.702,19.818 35.074,19.162 C34.447,18.505 33.958,17.684 33.607,16.699 C33.256,15.714 33.080,14.576 33.080,13.283 C33.080,12.076 33.266,10.964 33.639,9.947 C34.011,8.931 34.553,8.062 35.266,7.342 C35.978,6.622 36.845,6.061 37.866,5.658 C38.887,5.256 40.046,5.054 41.344,5.054 C42.598,5.054 43.789,5.150 44.917,5.340 C46.044,5.531 47.001,5.733 47.788,5.944 L47.788,20.337 C47.788,22.985 47.113,24.923 45.762,26.152 C44.412,27.380 42.343,27.994 39.557,27.994 ZM43.928,8.518 C43.651,8.454 43.311,8.396 42.907,8.343 C42.503,8.290 41.992,8.263 41.376,8.263 C39.972,8.263 38.898,8.724 38.153,9.646 C37.408,10.567 37.037,11.780 37.037,13.283 C37.037,14.915 37.393,16.106 38.105,16.858 C38.818,17.610 39.738,17.986 40.865,17.986 C41.482,17.986 42.062,17.902 42.604,17.732 C43.146,17.563 43.588,17.362 43.928,17.128 L43.928,8.518 ZM28.614,20.051 C27.912,20.814 27.067,21.407 26.077,21.830 C25.089,22.254 23.998,22.466 22.807,22.466 C21.616,22.466 20.531,22.254 19.553,21.830 C18.574,21.407 17.734,20.814 17.033,20.051 C16.331,19.289 15.783,18.367 15.389,17.287 C14.996,16.207 14.799,15.010 14.799,13.697 C14.799,12.383 14.996,11.192 15.389,10.122 C15.783,9.053 16.336,8.136 17.048,7.374 C17.761,6.611 18.606,6.023 19.585,5.611 C20.563,5.197 21.637,4.991 22.807,4.991 C23.977,4.991 25.057,5.197 26.046,5.611 C27.035,6.023 27.880,6.611 28.582,7.374 C29.284,8.136 29.831,9.053 30.225,10.122 C30.619,11.192 30.815,12.383 30.815,13.697 C30.815,15.010 30.624,16.207 30.241,17.287 C29.858,18.367 29.316,19.289 28.614,20.051 ZM25.790,9.773 C25.078,8.809 24.083,8.327 22.807,8.327 C21.531,8.327 20.537,8.809 19.824,9.773 C19.111,10.737 18.755,12.045 18.755,13.697 C18.755,15.370 19.111,16.694 19.824,17.668 C20.537,18.643 21.531,19.130 22.807,19.130 C24.083,19.130 25.078,18.643 25.790,17.668 C26.503,16.694 26.859,15.370 26.859,13.697 C26.859,12.045 26.503,10.737 25.790,9.773 ZM-0.005,0.003 L4.015,0.003 L4.015,18.558 L13.970,18.558 L13.970,22.021 L-0.005,22.021 L-0.005,0.003 Z" class="cls-1"/>
</svg>
